<?xml version="1.0" encoding="UTF-8"?>
<svg xmlns="http://www.w3.org/2000/svg" viewBox="0 0 50 35" preserveAspectRatio="xMidYMid slice" aria-hidden="true">
  <rect width="50" height="35" fill="#000000"/>
  <g fill="none" stroke-linecap="square">
    <line x1="0" y1="0" x2="0" y2="35" stroke="#454545" stroke-width="0.06"/>
    <line x1="1" y1="0" x2="1" y2="35" stroke="#2a2a2a" stroke-width="0.03"/>
    <line x1="2" y1="0" x2="2" y2="35" stroke="#2a2a2a" stroke-width="0.03"/>
    <line x1="3" y1="0" x2="3" y2="35" stroke="#2a2a2a" stroke-width="0.03"/>
    <line x1="4" y1="0" x2="4" y2="35" stroke="#2a2a2a" stroke-width="0.03"/>
    <line x1="5" y1="0" x2="5" y2="35" stroke="#454545" stroke-width="0.06"/>
    <line x1="6" y1="0" x2="6" y2="35" stroke="#2a2a2a" stroke-width="0.03"/>
    <line x1="7" y1="0" x2="7" y2="35" stroke="#2a2a2a" stroke-width="0.03"/>
    <line x1="8" y1="0" x2="8" y2="35" stroke="#2a2a2a" stroke-width="0.03"/>
    <line x1="9" y1="0" x2="9" y2="35" stroke="#2a2a2a" stroke-width="0.03"/>
    <line x1="10" y1="0" x2="10" y2="35" stroke="#454545" stroke-width="0.06"/>
    <line x1="11" y1="0" x2="11" y2="35" stroke="#2a2a2a" stroke-width="0.03"/>
    <line x1="12" y1="0" x2="12" y2="35" stroke="#2a2a2a" stroke-width="0.03"/>
    <line x1="13" y1="0" x2="13" y2="35" stroke="#2a2a2a" stroke-width="0.03"/>
    <line x1="14" y1="0" x2="14" y2="35" stroke="#2a2a2a" stroke-width="0.03"/>
    <line x1="15" y1="0" x2="15" y2="35" stroke="#454545" stroke-width="0.06"/>
    <line x1="16" y1="0" x2="16" y2="35" stroke="#2a2a2a" stroke-width="0.03"/>
    <line x1="17" y1="0" x2="17" y2="35" stroke="#2a2a2a" stroke-width="0.03"/>
    <line x1="18" y1="0" x2="18" y2="35" stroke="#2a2a2a" stroke-width="0.03"/>
    <line x1="19" y1="0" x2="19" y2="35" stroke="#2a2a2a" stroke-width="0.03"/>
    <line x1="20" y1="0" x2="20" y2="35" stroke="#454545" stroke-width="0.06"/>
    <line x1="21" y1="0" x2="21" y2="35" stroke="#2a2a2a" stroke-width="0.03"/>
    <line x1="22" y1="0" x2="22" y2="35" stroke="#2a2a2a" stroke-width="0.03"/>
    <line x1="23" y1="0" x2="23" y2="35" stroke="#2a2a2a" stroke-width="0.03"/>
    <line x1="24" y1="0" x2="24" y2="35" stroke="#2a2a2a" stroke-width="0.03"/>
    <line x1="25" y1="0" x2="25" y2="35" stroke="#454545" stroke-width="0.06"/>
    <line x1="26" y1="0" x2="26" y2="35" stroke="#2a2a2a" stroke-width="0.03"/>
    <line x1="27" y1="0" x2="27" y2="35" stroke="#2a2a2a" stroke-width="0.03"/>
    <line x1="28" y1="0" x2="28" y2="35" stroke="#2a2a2a" stroke-width="0.03"/>
    <line x1="29" y1="0" x2="29" y2="35" stroke="#2a2a2a" stroke-width="0.03"/>
    <line x1="30" y1="0" x2="30" y2="35" stroke="#454545" stroke-width="0.06"/>
    <line x1="31" y1="0" x2="31" y2="35" stroke="#2a2a2a" stroke-width="0.03"/>
    <line x1="32" y1="0" x2="32" y2="35" stroke="#2a2a2a" stroke-width="0.03"/>
    <line x1="33" y1="0" x2="33" y2="35" stroke="#2a2a2a" stroke-width="0.03"/>
    <line x1="34" y1="0" x2="34" y2="35" stroke="#2a2a2a" stroke-width="0.03"/>
    <line x1="35" y1="0" x2="35" y2="35" stroke="#454545" stroke-width="0.06"/>
    <line x1="36" y1="0" x2="36" y2="35" stroke="#2a2a2a" stroke-width="0.03"/>
    <line x1="37" y1="0" x2="37" y2="35" stroke="#2a2a2a" stroke-width="0.03"/>
    <line x1="38" y1="0" x2="38" y2="35" stroke="#2a2a2a" stroke-width="0.03"/>
    <line x1="39" y1="0" x2="39" y2="35" stroke="#2a2a2a" stroke-width="0.03"/>
    <line x1="40" y1="0" x2="40" y2="35" stroke="#454545" stroke-width="0.06"/>
    <line x1="41" y1="0" x2="41" y2="35" stroke="#2a2a2a" stroke-width="0.03"/>
    <line x1="42" y1="0" x2="42" y2="35" stroke="#2a2a2a" stroke-width="0.03"/>
    <line x1="43" y1="0" x2="43" y2="35" stroke="#2a2a2a" stroke-width="0.03"/>
    <line x1="44" y1="0" x2="44" y2="35" stroke="#2a2a2a" stroke-width="0.03"/>
    <line x1="45" y1="0" x2="45" y2="35" stroke="#454545" stroke-width="0.06"/>
    <line x1="46" y1="0" x2="46" y2="35" stroke="#2a2a2a" stroke-width="0.03"/>
    <line x1="47" y1="0" x2="47" y2="35" stroke="#2a2a2a" stroke-width="0.03"/>
    <line x1="48" y1="0" x2="48" y2="35" stroke="#2a2a2a" stroke-width="0.03"/>
    <line x1="49" y1="0" x2="49" y2="35" stroke="#2a2a2a" stroke-width="0.03"/>
    <line x1="50" y1="0" x2="50" y2="35" stroke="#454545" stroke-width="0.06"/>
    <line x1="0" y1="0" x2="50" y2="0" stroke="#454545" stroke-width="0.06"/>
    <line x1="0" y1="1" x2="50" y2="1" stroke="#2a2a2a" stroke-width="0.03"/>
    <line x1="0" y1="2" x2="50" y2="2" stroke="#2a2a2a" stroke-width="0.03"/>
    <line x1="0" y1="3" x2="50" y2="3" stroke="#2a2a2a" stroke-width="0.03"/>
    <line x1="0" y1="4" x2="50" y2="4" stroke="#2a2a2a" stroke-width="0.03"/>
    <line x1="0" y1="5" x2="50" y2="5" stroke="#454545" stroke-width="0.06"/>
    <line x1="0" y1="6" x2="50" y2="6" stroke="#2a2a2a" stroke-width="0.03"/>
    <line x1="0" y1="7" x2="50" y2="7" stroke="#2a2a2a" stroke-width="0.03"/>
    <line x1="0" y1="8" x2="50" y2="8" stroke="#2a2a2a" stroke-width="0.03"/>
    <line x1="0" y1="9" x2="50" y2="9" stroke="#2a2a2a" stroke-width="0.03"/>
    <line x1="0" y1="10" x2="50" y2="10" stroke="#454545" stroke-width="0.06"/>
    <line x1="0" y1="11" x2="50" y2="11" stroke="#2a2a2a" stroke-width="0.03"/>
    <line x1="0" y1="12" x2="50" y2="12" stroke="#2a2a2a" stroke-width="0.03"/>
    <line x1="0" y1="13" x2="50" y2="13" stroke="#2a2a2a" stroke-width="0.03"/>
    <line x1="0" y1="14" x2="50" y2="14" stroke="#2a2a2a" stroke-width="0.03"/>
    <line x1="0" y1="15" x2="50" y2="15" stroke="#454545" stroke-width="0.06"/>
    <line x1="0" y1="16" x2="50" y2="16" stroke="#2a2a2a" stroke-width="0.03"/>
    <line x1="0" y1="17" x2="50" y2="17" stroke="#2a2a2a" stroke-width="0.03"/>
    <line x1="0" y1="18" x2="50" y2="18" stroke="#2a2a2a" stroke-width="0.03"/>
    <line x1="0" y1="19" x2="50" y2="19" stroke="#2a2a2a" stroke-width="0.03"/>
    <line x1="0" y1="20" x2="50" y2="20" stroke="#454545" stroke-width="0.06"/>
    <line x1="0" y1="21" x2="50" y2="21" stroke="#2a2a2a" stroke-width="0.03"/>
    <line x1="0" y1="22" x2="50" y2="22" stroke="#2a2a2a" stroke-width="0.03"/>
    <line x1="0" y1="23" x2="50" y2="23" stroke="#2a2a2a" stroke-width="0.03"/>
    <line x1="0" y1="24" x2="50" y2="24" stroke="#2a2a2a" stroke-width="0.03"/>
    <line x1="0" y1="25" x2="50" y2="25" stroke="#454545" stroke-width="0.06"/>
    <line x1="0" y1="26" x2="50" y2="26" stroke="#2a2a2a" stroke-width="0.03"/>
    <line x1="0" y1="27" x2="50" y2="27" stroke="#2a2a2a" stroke-width="0.03"/>
    <line x1="0" y1="28" x2="50" y2="28" stroke="#2a2a2a" stroke-width="0.03"/>
    <line x1="0" y1="29" x2="50" y2="29" stroke="#2a2a2a" stroke-width="0.03"/>
    <line x1="0" y1="30" x2="50" y2="30" stroke="#454545" stroke-width="0.06"/>
    <line x1="0" y1="31" x2="50" y2="31" stroke="#2a2a2a" stroke-width="0.03"/>
    <line x1="0" y1="32" x2="50" y2="32" stroke="#2a2a2a" stroke-width="0.03"/>
    <line x1="0" y1="33" x2="50" y2="33" stroke="#2a2a2a" stroke-width="0.03"/>
    <line x1="0" y1="34" x2="50" y2="34" stroke="#2a2a2a" stroke-width="0.03"/>
    <line x1="0" y1="35" x2="50" y2="35" stroke="#454545" stroke-width="0.06"/>
    <rect x="0" y="0" width="50" height="35" stroke="#8a8a8a" stroke-width="0.08" fill="none"/>
    <path d="M 10 35 A 10 10 0 0 0 0 25" stroke="#b8b8b8" stroke-width="0.07"/>
    <path d="M 20 35 A 20 20 0 0 0 0 15" stroke="#b8b8b8" stroke-width="0.07"/>
    <path d="M 30 35 A 30 30 0 0 0 0 5" stroke="#b8b8b8" stroke-width="0.07"/>
    <line x1="0" y1="35" x2="50.228" y2="21.541" stroke="#b8b8b8" stroke-width="0.05" stroke-dasharray="0.35 0.35"/>
    <line x1="0" y1="35" x2="45.033" y2="9.000" stroke="#b8b8b8" stroke-width="0.05" stroke-dasharray="0.35 0.35"/>
    <line x1="0" y1="35" x2="36.770" y2="-1.770" stroke="#b8b8b8" stroke-width="0.05" stroke-dasharray="0.35 0.35"/>
    <line x1="0" y1="35" x2="26.000" y2="-10.033" stroke="#b8b8b8" stroke-width="0.05" stroke-dasharray="0.35 0.35"/>
  </g>
</svg>