<svg width="166" height="56" viewBox="0 0 166 56" fill="none" xmlns="http://www.w3.org/2000/svg">
<path d="M15.6304 48.0953L22.2573 47.9341L24.4526 46.7964L25.0454 47.7339L23.6606 48.8228L12.7456 51.3755L7.86377 50.106V46.2711L15.6304 48.0953ZM13.311 45.0826H8.84717V42.7086H13.311V45.0826ZM32.1567 41.5504L31.9438 42.0416L29.2075 44.6109L28.272 43.6285L30.7954 41.2584V35.8052H32.1567V41.5504ZM11.0591 37.9146L14.7358 37.9595L15.3013 38.1744L16.1255 38.8882L16.4243 39.5435V42.4664H14.6743V39.939L14.3921 39.6949L11.0425 39.6529H8.55811L8.3374 39.8541V42.1548H6.58643V39.4713L6.87061 38.8306L7.62646 38.1422L8.21729 37.9136L11.0591 37.9146ZM34.4946 4.88531L40.9683 6.9527L45.4419 14.0767L48.9995 14.3482V26.2271C48.9775 26.3097 45.9325 37.671 39.2925 38.9576C39.0021 39.1624 38.6896 39.3435 38.355 39.4937C37.1073 40.0541 35.6833 40.3364 34.1138 40.3365L34.1118 40.3345C33.8473 40.3345 33.5775 40.3265 33.3042 40.3101L33.3853 38.9605C35.054 39.0581 36.5361 38.8236 37.7915 38.2603C39.6899 37.4081 40.6935 35.31 40.1274 33.3795C39.8259 32.3535 39.2073 31.6633 38.2349 31.273C36.9901 30.7726 35.705 30.9421 34.4155 31.7769C33.3916 32.4407 32.7485 33.2878 32.7427 33.2964L31.6489 32.4918C31.6711 32.4622 32.0533 31.9567 32.7095 31.3795C31.7939 31.7139 31.0827 31.9987 31.061 32.0074V35.315H28.2212L28.1997 25.2877H25.4077V18.3716H11.4497V23.3199H7.86377V12.8795L11.7241 8.63727L20.2632 4.55914L34.4946 4.88531ZM33.1665 34.606C33.8599 33.5944 35.8163 31.9379 38.2534 32.9175L37.7427 34.1724C37.2973 33.9937 36.8836 33.9479 36.5083 33.9859C36.9169 34.7882 37.1341 35.8844 36.4155 36.8765L35.311 36.0865C35.7154 35.5284 35.4725 34.8835 35.2271 34.4713C34.6573 34.8551 34.3191 35.327 34.2896 35.3697V35.3687L33.1665 34.606ZM11.1411 25.0269L13.4712 27.023L13.6294 27.8482L9.8335 35.0748H15.2769V36.4273H8.70947L8.10693 35.439L12.1733 27.6978L10.5562 26.3111L7.90186 27.2847L7.43018 26.0162L10.4604 24.9039L11.1411 25.0269ZM20.3003 28.9019L18.4966 30.6939L16.6938 28.9019L18.4966 27.1109L20.3003 28.9019ZM9.51514 27.7095C10.2391 27.7095 10.8257 28.293 10.8257 29.0123C10.8257 29.7316 10.2392 30.315 9.51514 30.315C8.79111 30.315 8.20459 29.7316 8.20459 29.0123C8.20462 28.293 8.79113 27.7095 9.51514 27.7095ZM18.8872 24.6636L21.7837 25.8521L22.0278 26.022L22.6567 26.7095L21.6489 27.6197L21.1226 27.0445L18.6099 26.0132L15.522 27.1138L15.062 25.8404L18.3979 24.6519L18.8872 24.6636Z" fill="#030303"/>
<path d="M64.5 6.5L64.5 6L63.5 6L63.5 6.5L64 6.5L64.5 6.5ZM64 6.5L63.5 6.5L63.5 49.5L64 49.5L64.5 49.5L64.5 6.5L64 6.5Z" fill="#030303"/>
<path d="M156.688 23.3199V11.3199H158.88L160.927 19.8159L162.976 11.3199H165.168V23.3199H163.632L163.712 12.8719L161.312 23.3199H160.32L157.92 12.8719L158 23.3199H156.688Z" fill="#030303"/>
<path d="M148.594 23.3199L151.026 11.3199H153.202L155.634 23.3199H154.018L153.474 20.4079H150.594L150.05 23.3199H148.594ZM150.85 19.0639H153.234L152.034 12.6799L150.85 19.0639Z" fill="#030303"/>
<path d="M142.09 11.3199H143.866L145.674 16.7439L147.482 11.3199H149.018L146.362 18.3759V23.3199H144.746V18.3759L142.09 11.3199Z" fill="#030303"/>
<path d="M135.939 11.3199H141.827V12.6799H139.683V23.3199H138.083V12.6799H135.939V11.3199Z" fill="#030303"/>
<path d="M129.094 23.3199L131.526 11.3199H133.702L136.134 23.3199H134.518L133.974 20.4079H131.094L130.55 23.3199H129.094ZM131.35 19.0639H133.734L132.534 12.6799L131.35 19.0639Z" fill="#030303"/>
<path d="M122.191 20.216L123.631 19.976C123.716 20.6693 123.919 21.208 124.239 21.592C124.559 21.9653 124.959 22.152 125.439 22.152C125.898 22.152 126.26 22.0026 126.527 21.704C126.804 21.3946 126.943 20.984 126.943 20.472C126.943 20.0026 126.831 19.608 126.607 19.288C126.394 18.9573 126.122 18.664 125.791 18.408C125.46 18.1413 125.103 17.8853 124.719 17.64C124.335 17.3946 123.978 17.1173 123.647 16.808C123.316 16.488 123.039 16.1146 122.815 15.688C122.602 15.2613 122.495 14.7333 122.495 14.104C122.495 13.6666 122.564 13.272 122.703 12.92C122.842 12.5573 123.039 12.248 123.295 11.992C123.551 11.7253 123.855 11.5226 124.207 11.384C124.559 11.2346 124.948 11.16 125.375 11.16C126.175 11.16 126.826 11.4266 127.327 11.96C127.828 12.4826 128.132 13.2293 128.239 14.2L126.911 14.44C126.836 13.8 126.666 13.304 126.399 12.952C126.132 12.5893 125.786 12.408 125.359 12.408C124.943 12.408 124.607 12.552 124.351 12.84C124.095 13.128 123.967 13.512 123.967 13.992C123.967 14.4186 124.079 14.7866 124.303 15.096C124.527 15.3946 124.804 15.6666 125.135 15.912C125.476 16.1573 125.844 16.4026 126.239 16.648C126.634 16.8933 126.996 17.176 127.327 17.496C127.668 17.816 127.951 18.1946 128.175 18.632C128.399 19.0693 128.506 19.608 128.495 20.248C128.495 20.728 128.415 21.1653 128.255 21.56C128.106 21.9546 127.898 22.296 127.631 22.584C127.364 22.8613 127.044 23.08 126.671 23.24C126.298 23.4 125.887 23.48 125.439 23.48C124.511 23.48 123.764 23.1973 123.199 22.632C122.644 22.0666 122.308 21.2613 122.191 20.216Z" fill="#030303"/>
<path d="M112.793 11.3199H114.569L116.377 16.7439L118.185 11.3199H119.721L117.065 18.3759V23.3199H115.449V18.3759L112.793 11.3199Z" fill="#030303"/>
<path d="M106.359 11.3199H109.191C111.346 11.3199 112.423 12.3119 112.423 14.2959C112.423 15.7679 111.789 16.6799 110.519 17.0319C111.97 17.3839 112.695 18.3706 112.695 19.9919C112.695 22.2106 111.533 23.3199 109.207 23.3199H106.359V11.3199ZM107.943 17.7359V22.0079H109.111C109.805 22.0079 110.301 21.8426 110.599 21.5119C110.909 21.1813 111.063 20.6266 111.063 19.8479C111.063 18.4399 110.386 17.7359 109.031 17.7359H107.943ZM107.943 12.5999V16.4239H108.951C109.613 16.4239 110.087 16.2746 110.375 15.9759C110.674 15.6773 110.823 15.1759 110.823 14.4719C110.823 13.7999 110.69 13.3199 110.423 13.0319C110.167 12.7439 109.746 12.5999 109.159 12.5999H107.943Z" fill="#030303"/>
<path d="M97.5156 11.3199H103.004V12.6799H99.1156V16.4559H101.964V17.8159H99.1156V21.9599H103.004V23.3199H97.5156V11.3199Z" fill="#030303"/>
<path d="M89.625 11.3199H91.689C93.1823 11.3199 94.2757 11.7999 94.969 12.7599C95.673 13.7093 96.025 15.2293 96.025 17.3199C96.025 19.3893 95.673 20.9093 94.969 21.8799C94.2757 22.8399 93.1823 23.3199 91.689 23.3199H89.625V11.3199ZM91.225 12.6479V21.9919H91.721C92.201 21.9919 92.6063 21.9119 92.937 21.7519C93.2783 21.5919 93.5557 21.3306 93.769 20.9679C93.9823 20.5946 94.137 20.1093 94.233 19.5119C94.3397 18.9146 94.393 18.1839 94.393 17.3199C94.393 16.4559 94.3397 15.7253 94.233 15.1279C94.137 14.5306 93.9823 14.0506 93.769 13.6879C93.5557 13.3146 93.2783 13.0479 92.937 12.8879C92.6063 12.7279 92.201 12.6479 91.721 12.6479H91.225Z" fill="#030303"/>
<path d="M81.5317 23.3199L83.9637 11.3199H86.1397L88.5717 23.3199H86.9557L86.4117 20.4079H83.5317L82.9877 23.3199H81.5317ZM83.7877 19.0639H86.1717L84.9717 12.6799L83.7877 19.0639Z" fill="#030303"/>
<path d="M72 23.3199V11.3199H74.192L76.24 19.8159L78.288 11.3199H80.48V23.3199H78.944L79.024 12.8719L76.624 23.3199H75.632L73.232 12.8719L73.312 23.3199H72Z" fill="#030303"/>
<path d="M140.128 43.72V37.96H138.336V40.68C138.336 42.0773 137.552 42.776 135.984 42.776C134.416 42.776 133.632 42.0773 133.632 40.68V38.824C133.632 37.448 134.416 36.76 135.984 36.76H136.992V34.408H132.672V33.224H142.976V34.408H141.504V43.72H140.128ZM138.336 36.76H140.128V34.408H138.336V36.76ZM136.992 40.648V37.96H135.984C135.579 37.96 135.307 38.0347 135.168 38.184C135.04 38.3227 134.976 38.5467 134.976 38.856V40.648C134.976 40.9573 135.04 41.1867 135.168 41.336C135.307 41.4853 135.579 41.56 135.984 41.56C136.389 41.56 136.656 41.4907 136.784 41.352C136.923 41.2027 136.992 40.968 136.992 40.648Z" fill="#030303"/>
<path d="M127.775 35.416C127.775 35.0213 127.732 34.6853 127.647 34.408H120.719V33.224H133.599V34.408H132.127V43.72H130.735V42.184C130.191 42.3013 129.641 42.36 129.087 42.36C128.095 42.36 127.295 42.136 126.687 41.688C126.079 41.24 125.775 40.5307 125.775 39.56V38.072C125.636 37.72 125.311 37.544 124.799 37.544H124.591C123.748 37.544 123.327 37.9013 123.327 38.616V41.512C123.327 41.832 123.417 42.072 123.599 42.232C123.78 42.3813 124.089 42.4507 124.527 42.44V43.72L124.143 43.736C122.671 43.768 121.935 43.0587 121.935 41.608V38.584C121.935 37.0373 122.82 36.264 124.591 36.264H124.831C126.047 36.264 126.793 36.6533 127.071 37.432C127.327 37.3787 127.508 37.272 127.615 37.112C127.721 36.952 127.775 36.7173 127.775 36.408V35.416ZM130.735 34.408H129.007C129.092 34.6533 129.135 34.9893 129.135 35.416V36.6C129.135 37.848 128.468 38.488 127.135 38.52V39.416C127.135 39.9707 127.295 40.3867 127.615 40.664C127.945 40.9307 128.415 41.064 129.023 41.064C129.631 41.064 130.201 41.0107 130.735 40.904V34.408Z" fill="#030303"/>
<path d="M115.61 35.416C115.61 35.0533 115.562 34.7173 115.466 34.408H110.906V33.224H121.642V34.408H120.17V43.72H118.778V39.224H116.426C116.032 39.6187 115.429 39.816 114.618 39.816C114.256 39.816 113.914 39.7733 113.594 39.688V41.272C113.594 42.1147 114.16 42.536 115.29 42.536C115.888 42.536 116.538 42.4293 117.242 42.216V43.496C116.613 43.6987 115.872 43.8 115.018 43.8C114.165 43.8 113.482 43.5813 112.97 43.144C112.458 42.7067 112.202 42.0933 112.202 41.304V36.52H113.594V38.456C113.936 38.5413 114.229 38.584 114.474 38.584C115.232 38.584 115.61 38.2533 115.61 37.592V35.416ZM118.778 38.024V34.408H116.858C116.933 34.632 116.97 34.968 116.97 35.416V37.592C116.97 37.688 116.96 37.832 116.938 38.024H118.778Z" fill="#030303"/>
<path d="M107.374 36.872H104.91C104.515 36.872 104.238 36.9413 104.078 37.08C103.929 37.2186 103.854 37.432 103.854 37.72V37.784C103.854 38.36 104.206 38.648 104.91 38.648H105.294C106.969 38.648 107.806 39.3413 107.806 40.728V41.304C107.806 42.0293 107.609 42.568 107.214 42.92C106.83 43.272 106.19 43.448 105.294 43.448C104.867 43.448 104.425 43.4053 103.966 43.32V44.84H102.622V41H103.966V42.072C104.329 42.1573 104.723 42.2 105.15 42.2C106.003 42.2 106.43 41.8853 106.43 41.256V40.76C106.43 40.4613 106.345 40.2373 106.174 40.088C106.014 39.928 105.721 39.848 105.294 39.848H104.91C103.289 39.848 102.478 39.1706 102.478 37.816V37.688C102.478 36.9946 102.675 36.4826 103.07 36.152C103.475 35.8213 104.089 35.656 104.91 35.656H105.982V34.408H101.422V33.224H105.918C105.587 32.5626 105.422 31.928 105.422 31.32C105.422 30.712 105.619 30.2533 106.014 29.944C106.419 29.6346 106.921 29.48 107.518 29.48C107.721 29.48 108.035 29.5066 108.462 29.56V30.792C108.238 30.76 108.051 30.744 107.902 30.744C107.177 30.744 106.814 31.0533 106.814 31.672C106.814 32.0666 106.974 32.584 107.294 33.224H108.814V34.408H107.374V36.872Z" fill="#030303"/>
<path d="M99.4876 34.408H98.0156V33.224H102.352V34.408H100.88V43.72H99.4876V34.408Z" fill="#030303"/>
<path d="M91.0625 33.224H98.9505V34.408H97.4625V43.72H96.1505V42.504C95.7985 42.6213 95.3665 42.68 94.8545 42.68C93.0732 42.68 92.1825 41.928 92.1825 40.424V37.896C92.1825 36.392 93.0572 35.64 94.8065 35.64C95.3718 35.64 95.8198 35.704 96.1505 35.832V34.408H91.0625V33.224ZM94.9185 36.824C94.1932 36.824 93.7505 37.048 93.5905 37.496L96.1505 39.656V37.016C95.8198 36.888 95.4092 36.824 94.9185 36.824ZM93.5265 40.376C93.5265 41.1227 93.9905 41.496 94.9185 41.496C95.3878 41.496 95.7985 41.4427 96.1505 41.336V40.744L93.5265 38.504V40.376Z" fill="#030303"/>
<path d="M87.871 41.144V41.576C87.871 43.0907 86.8897 43.848 84.927 43.848C84.2017 43.848 83.4657 43.7627 82.719 43.592V42.296C83.423 42.4773 84.159 42.568 84.927 42.568C85.9617 42.568 86.479 42.232 86.479 41.56V41.176C86.479 40.8773 86.3937 40.6533 86.223 40.504C86.063 40.344 85.7697 40.264 85.343 40.264H85.023C83.391 40.264 82.575 39.5867 82.575 38.232V37.672C82.575 36.3173 83.391 35.64 85.023 35.64H85.999V34.408H81.375V33.224H88.959V34.408H87.391V36.872H85.023C84.6283 36.872 84.351 36.9467 84.191 37.096C84.0417 37.2347 83.967 37.448 83.967 37.736V38.184C83.967 38.472 84.0417 38.6907 84.191 38.84C84.351 38.9893 84.6283 39.064 85.023 39.064H85.343C87.0283 39.064 87.871 39.7573 87.871 41.144Z" fill="#030303"/>
<path d="M77.1992 29.56C77.6472 29.56 78.0205 29.6453 78.3192 29.816C78.6178 29.976 78.9058 30.2693 79.1832 30.696L80.8312 33.224H79.3912L78.1752 31.384C77.8978 30.9573 77.5245 30.744 77.0552 30.744C76.8738 30.744 76.7352 30.7493 76.6392 30.76V29.592C76.8738 29.5707 77.0605 29.56 77.1992 29.56Z" fill="#030303"/>
<path d="M79.456 43.72V37.96H77.664V40.68C77.664 42.0773 76.88 42.776 75.312 42.776C73.744 42.776 72.96 42.0773 72.96 40.68V38.824C72.96 37.448 73.744 36.76 75.312 36.76H76.32V34.408H72V33.224H82.304V34.408H80.832V43.72H79.456ZM77.664 36.76H79.456V34.408H77.664V36.76ZM76.32 40.648V37.96H75.312C74.9067 37.96 74.6347 38.0347 74.496 38.184C74.368 38.3227 74.304 38.5467 74.304 38.856V40.648C74.304 40.9573 74.368 41.1867 74.496 41.336C74.6347 41.4853 74.9067 41.56 75.312 41.56C75.7173 41.56 75.984 41.4907 76.112 41.352C76.2507 41.2027 76.32 40.968 76.32 40.648Z" fill="#030303"/>
</svg>
