<svg width="166" height="56" viewBox="0 0 166 56" fill="none" xmlns="http://www.w3.org/2000/svg">
<path d="M9.9917 15.2038H30.013L29.1506 46.7293L9.9917 48.0054V15.2038Z" fill="#CFCFCF"/>
<mask id="path-2-outside-1_863_2092" maskUnits="userSpaceOnUse" x="4.58643" y="2.55914" width="46" height="51" fill="black">
<rect fill="white" x="4.58643" y="2.55914" width="46" height="51"/>
<path d="M15.6304 48.0953L22.2573 47.9341L24.4526 46.7964L25.0454 47.7339L23.6606 48.8228L12.7456 51.3755L7.86377 50.106V46.2711L15.6304 48.0953ZM13.311 45.0826H8.84717V42.7086H13.311V45.0826ZM32.1567 41.5504L31.9438 42.0416L29.2075 44.6109L28.272 43.6285L30.7954 41.2584V35.8052H32.1567V41.5504ZM11.0591 37.9146L14.7358 37.9595L15.3013 38.1744L16.1255 38.8882L16.4243 39.5435V42.4664H14.6743V39.939L14.3921 39.6949L11.0425 39.6529H8.55811L8.3374 39.8541V42.1548H6.58643V39.4713L6.87061 38.8306L7.62646 38.1422L8.21729 37.9136L11.0591 37.9146ZM34.4946 4.88531L40.9683 6.9527L45.4419 14.0767L48.9995 14.3482V26.2271C48.9775 26.3097 45.9325 37.671 39.2925 38.9576C39.0021 39.1624 38.6896 39.3435 38.355 39.4937C37.1073 40.0541 35.6833 40.3364 34.1138 40.3365L34.1118 40.3345C33.8473 40.3345 33.5775 40.3265 33.3042 40.3101L33.3853 38.9605C35.054 39.0581 36.5361 38.8236 37.7915 38.2603C39.6899 37.4081 40.6935 35.31 40.1274 33.3795C39.8259 32.3535 39.2073 31.6633 38.2349 31.273C36.9901 30.7726 35.705 30.9421 34.4155 31.7769C33.3916 32.4407 32.7485 33.2878 32.7427 33.2964L31.6489 32.4918C31.6711 32.4622 32.0533 31.9567 32.7095 31.3795C31.7939 31.7139 31.0827 31.9987 31.061 32.0074V35.315H28.2212L28.1997 25.2877H25.4077V18.3716H11.4497V23.3199H7.86377V12.8795L11.7241 8.63727L20.2632 4.55914L34.4946 4.88531ZM33.1665 34.606C33.8599 33.5944 35.8163 31.9379 38.2534 32.9175L37.7427 34.1724C37.2973 33.9937 36.8836 33.9479 36.5083 33.9859C36.9169 34.7882 37.1341 35.8844 36.4155 36.8765L35.311 36.0865C35.7154 35.5284 35.4725 34.8835 35.2271 34.4713C34.6573 34.8551 34.3191 35.327 34.2896 35.3697V35.3687L33.1665 34.606ZM11.1411 25.0269L13.4712 27.023L13.6294 27.8482L9.8335 35.0748H15.2769V36.4273H8.70947L8.10693 35.439L12.1733 27.6978L10.5562 26.3111L7.90186 27.2847L7.43018 26.0162L10.4604 24.9039L11.1411 25.0269ZM20.3003 28.9019L18.4966 30.6939L16.6938 28.9019L18.4966 27.1109L20.3003 28.9019ZM9.51514 27.7095C10.2391 27.7095 10.8257 28.293 10.8257 29.0123C10.8257 29.7316 10.2392 30.315 9.51514 30.315C8.79111 30.315 8.20459 29.7316 8.20459 29.0123C8.20462 28.293 8.79113 27.7095 9.51514 27.7095ZM18.8872 24.6636L21.7837 25.8521L22.0278 26.022L22.6567 26.7095L21.6489 27.6197L21.1226 27.0445L18.6099 26.0132L15.522 27.1138L15.062 25.8404L18.3979 24.6519L18.8872 24.6636Z"/>
</mask>
<path d="M15.6304 48.0953L22.2573 47.9341L24.4526 46.7964L25.0454 47.7339L23.6606 48.8228L12.7456 51.3755L7.86377 50.106V46.2711L15.6304 48.0953ZM13.311 45.0826H8.84717V42.7086H13.311V45.0826ZM32.1567 41.5504L31.9438 42.0416L29.2075 44.6109L28.272 43.6285L30.7954 41.2584V35.8052H32.1567V41.5504ZM11.0591 37.9146L14.7358 37.9595L15.3013 38.1744L16.1255 38.8882L16.4243 39.5435V42.4664H14.6743V39.939L14.3921 39.6949L11.0425 39.6529H8.55811L8.3374 39.8541V42.1548H6.58643V39.4713L6.87061 38.8306L7.62646 38.1422L8.21729 37.9136L11.0591 37.9146ZM34.4946 4.88531L40.9683 6.9527L45.4419 14.0767L48.9995 14.3482V26.2271C48.9775 26.3097 45.9325 37.671 39.2925 38.9576C39.0021 39.1624 38.6896 39.3435 38.355 39.4937C37.1073 40.0541 35.6833 40.3364 34.1138 40.3365L34.1118 40.3345C33.8473 40.3345 33.5775 40.3265 33.3042 40.3101L33.3853 38.9605C35.054 39.0581 36.5361 38.8236 37.7915 38.2603C39.6899 37.4081 40.6935 35.31 40.1274 33.3795C39.8259 32.3535 39.2073 31.6633 38.2349 31.273C36.9901 30.7726 35.705 30.9421 34.4155 31.7769C33.3916 32.4407 32.7485 33.2878 32.7427 33.2964L31.6489 32.4918C31.6711 32.4622 32.0533 31.9567 32.7095 31.3795C31.7939 31.7139 31.0827 31.9987 31.061 32.0074V35.315H28.2212L28.1997 25.2877H25.4077V18.3716H11.4497V23.3199H7.86377V12.8795L11.7241 8.63727L20.2632 4.55914L34.4946 4.88531ZM33.1665 34.606C33.8599 33.5944 35.8163 31.9379 38.2534 32.9175L37.7427 34.1724C37.2973 33.9937 36.8836 33.9479 36.5083 33.9859C36.9169 34.7882 37.1341 35.8844 36.4155 36.8765L35.311 36.0865C35.7154 35.5284 35.4725 34.8835 35.2271 34.4713C34.6573 34.8551 34.3191 35.327 34.2896 35.3697V35.3687L33.1665 34.606ZM11.1411 25.0269L13.4712 27.023L13.6294 27.8482L9.8335 35.0748H15.2769V36.4273H8.70947L8.10693 35.439L12.1733 27.6978L10.5562 26.3111L7.90186 27.2847L7.43018 26.0162L10.4604 24.9039L11.1411 25.0269ZM20.3003 28.9019L18.4966 30.6939L16.6938 28.9019L18.4966 27.1109L20.3003 28.9019ZM9.51514 27.7095C10.2391 27.7095 10.8257 28.293 10.8257 29.0123C10.8257 29.7316 10.2392 30.315 9.51514 30.315C8.79111 30.315 8.20459 29.7316 8.20459 29.0123C8.20462 28.293 8.79113 27.7095 9.51514 27.7095ZM18.8872 24.6636L21.7837 25.8521L22.0278 26.022L22.6567 26.7095L21.6489 27.6197L21.1226 27.0445L18.6099 26.0132L15.522 27.1138L15.062 25.8404L18.3979 24.6519L18.8872 24.6636Z" fill="#030303"/>
<path d="M15.6304 48.0953L15.287 49.5571L15.4744 49.6011L15.6669 49.5964L15.6304 48.0953ZM22.2573 47.9341L22.2938 49.4353L22.6404 49.4269L22.9482 49.2673L22.2573 47.9341ZM24.4526 46.7964L25.7218 45.994L24.9853 44.8291L23.7617 45.4632L24.4526 46.7964ZM25.0454 47.7339L25.9736 48.9143L27.0388 48.0768L26.3146 46.9315L25.0454 47.7339ZM23.6606 48.8228L24.0026 50.285L24.327 50.2091L24.5888 50.0032L23.6606 48.8228ZM12.7456 51.3755L12.3677 52.8288L12.7265 52.9221L13.0876 52.8377L12.7456 51.3755ZM7.86377 50.106H6.36217V51.2671L7.48585 51.5593L7.86377 50.106ZM7.86377 46.2711L8.20712 44.8092L6.36217 44.3759V46.2711H7.86377ZM13.311 45.0826V46.5842H14.8126V45.0826H13.311ZM8.84717 45.0826H7.34557V46.5842H8.84717V45.0826ZM8.84717 42.7086V41.207H7.34557V42.7086H8.84717ZM13.311 42.7086H14.8126V41.207H13.311V42.7086ZM32.1567 41.5504L33.5345 42.1475L33.6583 41.8618V41.5504H32.1567ZM31.9438 42.0416L32.9717 43.1362L33.1981 42.9236L33.3216 42.6387L31.9438 42.0416ZM29.2075 44.6109L28.1201 45.6464L29.1484 46.7262L30.2354 45.7056L29.2075 44.6109ZM28.272 43.6285L27.244 42.534L26.1419 43.5691L27.1846 44.664L28.272 43.6285ZM30.7954 41.2584L31.8234 42.3529L32.297 41.9081V41.2584H30.7954ZM30.7954 35.8052V34.3036H29.2938V35.8052H30.7954ZM32.1567 35.8052H33.6583V34.3036H32.1567V35.8052ZM11.0591 37.9146L11.0774 36.4131L11.0685 36.413L11.0596 36.413L11.0591 37.9146ZM14.7358 37.9595L15.2692 36.5558L15.0204 36.4613L14.7542 36.458L14.7358 37.9595ZM15.3013 38.1744L16.2844 37.0393L16.0833 36.8652L15.8346 36.7707L15.3013 38.1744ZM16.1255 38.8882L17.4917 38.2652L17.3559 37.9674L17.1086 37.7532L16.1255 38.8882ZM16.4243 39.5435H17.9259V39.2173L17.7906 38.9205L16.4243 39.5435ZM16.4243 42.4664V43.968H17.9259V42.4664H16.4243ZM14.6743 42.4664H13.1727V43.968H14.6743V42.4664ZM14.6743 39.939H16.1759V39.2525L15.6567 38.8034L14.6743 39.939ZM14.3921 39.6949L15.3745 38.5592L14.9595 38.2003L14.4109 38.1934L14.3921 39.6949ZM11.0425 39.6529L11.0613 38.1514L11.0519 38.1513H11.0425V39.6529ZM8.55811 39.6529V38.1513H7.97644L7.54655 38.5431L8.55811 39.6529ZM8.3374 39.8541L7.32585 38.7443L6.8358 39.191V39.8541H8.3374ZM8.3374 42.1548V43.6564H9.839V42.1548H8.3374ZM6.58643 42.1548H5.08483V43.6564H6.58643V42.1548ZM6.58643 39.4713L5.21382 38.8624L5.08483 39.1531V39.4713H6.58643ZM6.87061 38.8306L5.85945 37.7205L5.62603 37.9331L5.498 38.2217L6.87061 38.8306ZM7.62646 38.1422L7.08479 36.7417L6.8229 36.8429L6.61531 37.032L7.62646 38.1422ZM8.21729 37.9136L8.2178 36.412L7.93726 36.4119L7.67561 36.5131L8.21729 37.9136ZM34.4946 4.88531L34.9514 3.45489L34.7453 3.38907L34.529 3.38411L34.4946 4.88531ZM40.9683 6.9527L42.2399 6.15414L41.948 5.68927L41.4251 5.52227L40.9683 6.9527ZM45.4419 14.0767L44.1702 14.8753L44.5728 15.5164L45.3276 15.574L45.4419 14.0767ZM48.9995 14.3482H50.5011V12.9568L49.1138 12.851L48.9995 14.3482ZM48.9995 26.2271L50.4503 26.6144L50.5011 26.4241V26.2271H48.9995ZM39.2925 38.9576L39.0069 37.4834L38.6904 37.5447L38.427 37.7305L39.2925 38.9576ZM38.355 39.4937L37.74 38.1238L37.7398 38.1239L38.355 39.4937ZM34.1138 40.3365L33.052 41.3983L33.4918 41.8381L34.1138 41.8381L34.1138 40.3365ZM34.1118 40.3345L35.1736 39.2727L34.7338 38.8329H34.1118V40.3345ZM33.3042 40.3101L31.8053 40.2201L31.7153 41.7189L33.2141 41.809L33.3042 40.3101ZM33.3853 38.9605L33.4729 37.4615L31.9762 37.374L31.8864 38.8705L33.3853 38.9605ZM37.7915 38.2603L38.4062 39.6303L38.4065 39.6302L37.7915 38.2603ZM40.1274 33.3795L41.5684 32.957L41.5681 32.9561L40.1274 33.3795ZM38.2349 31.273L37.6748 32.6662L37.6755 32.6665L38.2349 31.273ZM34.4155 31.7769L33.5995 30.5164L33.5987 30.5169L34.4155 31.7769ZM32.7427 33.2964L31.8528 34.506L33.1159 35.4352L33.9896 34.1331L32.7427 33.2964ZM31.6489 32.4918L30.4471 31.5915L29.5391 32.8037L30.7591 33.7013L31.6489 32.4918ZM32.7095 31.3795L33.7013 32.5069L32.1942 29.969L32.7095 31.3795ZM31.061 32.0074L30.5009 30.6142L29.5594 30.9927V32.0074H31.061ZM31.061 35.315V36.8166H32.5626V35.315H31.061ZM28.2212 35.315L26.7196 35.3182L26.7228 36.8166H28.2212V35.315ZM28.1997 25.2877L29.7013 25.2844L29.6981 23.7861H28.1997V25.2877ZM25.4077 25.2877H23.9061V26.7893H25.4077V25.2877ZM25.4077 18.3716H26.9093V16.87H25.4077V18.3716ZM11.4497 18.3716V16.87H9.94811V18.3716H11.4497ZM11.4497 23.3199V24.8215H12.9513V23.3199H11.4497ZM7.86377 23.3199H6.36217V24.8215H7.86377V23.3199ZM7.86377 12.8795L6.75317 11.8688L6.36217 12.2985V12.8795H7.86377ZM11.7241 8.63727L11.077 7.28227L10.8115 7.40905L10.6135 7.62664L11.7241 8.63727ZM20.2632 4.55914L20.2976 3.05794L19.9394 3.04973L19.6161 3.20414L20.2632 4.55914ZM33.1665 34.606L31.9279 33.757L31.0753 35.001L32.3229 35.8482L33.1665 34.606ZM38.2534 32.9175L39.6442 33.4836L40.2128 32.0868L38.8135 31.5243L38.2534 32.9175ZM37.7427 34.1724L37.1833 35.5659L38.5701 36.1226L39.1335 34.7385L37.7427 34.1724ZM36.5083 33.9859L36.3572 32.4919L34.1747 32.7127L35.1702 34.6674L36.5083 33.9859ZM36.4155 36.8765L35.5419 38.0978L36.7561 38.9663L37.6317 37.7573L36.4155 36.8765ZM35.311 36.0865L34.0951 35.2054L33.2086 36.4288L34.4374 37.3078L35.311 36.0865ZM35.2271 34.4713L36.5173 33.7031L35.705 32.3387L34.3881 33.2259L35.2271 34.4713ZM34.2896 35.3697H32.788V40.1787L35.5244 36.2241L34.2896 35.3697ZM34.2896 35.3687H35.7912V34.5733L35.1332 34.1265L34.2896 35.3687ZM11.1411 25.0269L12.118 23.8865L11.8089 23.6217L11.4082 23.5493L11.1411 25.0269ZM13.4712 27.023L14.9459 26.7403L14.847 26.2244L14.4481 25.8826L13.4712 27.023ZM13.6294 27.8482L14.9588 28.5465L15.203 28.0814L15.1041 27.5655L13.6294 27.8482ZM9.8335 35.0748L8.50413 34.3765L7.3486 36.5764H9.8335V35.0748ZM15.2769 35.0748H16.7785V33.5732H15.2769V35.0748ZM15.2769 36.4273V37.9289H16.7785V36.4273H15.2769ZM8.70947 36.4273L7.42737 37.209L7.8663 37.9289H8.70947V36.4273ZM8.10693 35.439L6.77758 34.7407L6.38184 35.4941L6.82483 36.2207L8.10693 35.439ZM12.1733 27.6978L13.5027 28.3961L14.0591 27.3368L13.1508 26.5579L12.1733 27.6978ZM10.5562 26.3111L11.5336 25.1712L10.8654 24.5982L10.039 24.9013L10.5562 26.3111ZM7.90186 27.2847L6.4944 27.8081L7.01542 29.2093L8.41897 28.6945L7.90186 27.2847ZM7.43018 26.0162L6.91275 24.6065L5.4972 25.1261L6.02272 26.5395L7.43018 26.0162ZM10.4604 24.9039L10.7276 23.4262L10.3261 23.3536L9.94302 23.4942L10.4604 24.9039ZM20.3003 28.9019L21.3586 29.9672L22.4311 28.9016L21.3583 27.8364L20.3003 28.9019ZM18.4966 30.6939L17.438 31.7589L18.4963 32.8109L19.5549 31.7592L18.4966 30.6939ZM16.6938 28.9019L15.6355 27.8367L14.5636 28.9016L15.6352 29.9669L16.6938 28.9019ZM18.4966 27.1109L19.5546 26.0454L18.4963 24.9945L17.4383 26.0457L18.4966 27.1109ZM9.51514 27.7095L9.51515 26.2079H9.51514V27.7095ZM10.8257 29.0123H12.3273L12.3273 29.0122L10.8257 29.0123ZM9.51514 30.315V31.8166H9.51515L9.51514 30.315ZM8.20459 29.0123L6.70299 29.0122V29.0123H8.20459ZM18.8872 24.6636L19.4572 23.2744L19.2005 23.1691L18.9232 23.1625L18.8872 24.6636ZM21.7837 25.8521L22.6415 24.6196L22.5062 24.5255L22.3537 24.4629L21.7837 25.8521ZM22.0278 26.022L23.1358 25.0085L23.0229 24.8851L22.8856 24.7896L22.0278 26.022ZM22.6567 26.7095L23.6632 27.8239L24.7847 26.8111L23.7647 25.696L22.6567 26.7095ZM21.6489 27.6197L20.5412 28.6334L21.5482 29.7339L22.6553 28.7341L21.6489 27.6197ZM21.1226 27.0445L22.2303 26.0308L22.0035 25.7829L21.6927 25.6553L21.1226 27.0445ZM18.6099 26.0132L19.18 24.6241L18.6477 24.4056L18.1057 24.5988L18.6099 26.0132ZM15.522 27.1138L14.1097 27.6239L14.6176 29.0303L16.0261 28.5283L15.522 27.1138ZM15.062 25.8404L14.5581 24.4259L13.1374 24.932L13.6497 26.3505L15.062 25.8404ZM18.3979 24.6519L18.4339 23.1507L18.1559 23.1441L17.894 23.2374L18.3979 24.6519ZM15.6304 48.0953L15.6669 49.5964L22.2938 49.4353L22.2573 47.9341L22.2208 46.433L15.5939 46.5941L15.6304 48.0953ZM22.2573 47.9341L22.9482 49.2673L25.1436 48.1297L24.4526 46.7964L23.7617 45.4632L21.5664 46.6009L22.2573 47.9341ZM24.4526 46.7964L23.1835 47.5989L23.7762 48.5364L25.0454 47.7339L26.3146 46.9315L25.7218 45.994L24.4526 46.7964ZM25.0454 47.7339L24.1172 46.5536L22.7325 47.6424L23.6606 48.8228L24.5888 50.0032L25.9736 48.9143L25.0454 47.7339ZM23.6606 48.8228L23.3187 47.3607L12.4036 49.9134L12.7456 51.3755L13.0876 52.8377L24.0026 50.285L23.6606 48.8228ZM12.7456 51.3755L13.1235 49.9223L8.24169 48.6528L7.86377 50.106L7.48585 51.5593L12.3677 52.8288L12.7456 51.3755ZM7.86377 50.106H9.36537V46.2711H7.86377H6.36217V50.106H7.86377ZM7.86377 46.2711L7.52042 47.7329L15.287 49.5571L15.6304 48.0953L15.9737 46.6335L8.20712 44.8092L7.86377 46.2711ZM13.311 45.0826V43.581H8.84717V45.0826V46.5842H13.311V45.0826ZM8.84717 45.0826H10.3488V42.7086H8.84717H7.34557V45.0826H8.84717ZM8.84717 42.7086V44.2102H13.311V42.7086V41.207H8.84717V42.7086ZM13.311 42.7086H11.8094V45.0826H13.311H14.8126V42.7086H13.311ZM32.1567 41.5504L30.779 40.9532L30.5661 41.4444L31.9438 42.0416L33.3216 42.6387L33.5345 42.1475L32.1567 41.5504ZM31.9438 42.0416L30.916 40.9469L28.1797 43.5162L29.2075 44.6109L30.2354 45.7056L32.9717 43.1362L31.9438 42.0416ZM29.2075 44.6109L30.2949 43.5754L29.3594 42.5929L28.272 43.6285L27.1846 44.664L28.1201 45.6464L29.2075 44.6109ZM28.272 43.6285L29.3 44.723L31.8234 42.3529L30.7954 41.2584L29.7674 40.1638L27.244 42.534L28.272 43.6285ZM30.7954 41.2584H32.297V35.8052H30.7954H29.2938V41.2584H30.7954ZM30.7954 35.8052V37.3068H32.1567V35.8052V34.3036H30.7954V35.8052ZM32.1567 35.8052H30.6551V41.5504H32.1567H33.6583V35.8052H32.1567ZM11.0591 37.9146L11.0407 39.4161L14.7175 39.461L14.7358 37.9595L14.7542 36.458L11.0774 36.4131L11.0591 37.9146ZM14.7358 37.9595L14.2025 39.3632L14.7679 39.5781L15.3013 38.1744L15.8346 36.7707L15.2692 36.5558L14.7358 37.9595ZM15.3013 38.1744L14.3182 39.3094L15.1424 40.0233L16.1255 38.8882L17.1086 37.7532L16.2844 37.0393L15.3013 38.1744ZM16.1255 38.8882L14.7593 39.5113L15.0581 40.1666L16.4243 39.5435L17.7906 38.9205L17.4917 38.2652L16.1255 38.8882ZM16.4243 39.5435H14.9227V42.4664H16.4243H17.9259V39.5435H16.4243ZM16.4243 42.4664V40.9648H14.6743V42.4664V43.968H16.4243V42.4664ZM14.6743 42.4664H16.1759V39.939H14.6743H13.1727V42.4664H14.6743ZM14.6743 39.939L15.6567 38.8034L15.3745 38.5592L14.3921 39.6949L13.4097 40.8305L13.6919 41.0747L14.6743 39.939ZM14.3921 39.6949L14.4109 38.1934L11.0613 38.1514L11.0425 39.6529L11.0237 41.1544L14.3733 41.1964L14.3921 39.6949ZM11.0425 39.6529V38.1513H8.55811V39.6529V41.1545H11.0425V39.6529ZM8.55811 39.6529L7.54655 38.5431L7.32585 38.7443L8.3374 39.8541L9.34895 40.9638L9.56966 40.7627L8.55811 39.6529ZM8.3374 39.8541H6.8358V42.1548H8.3374H9.839V39.8541H8.3374ZM8.3374 42.1548V40.6532H6.58643V42.1548V43.6564H8.3374V42.1548ZM6.58643 42.1548H8.08803V39.4713H6.58643H5.08483V42.1548H6.58643ZM6.58643 39.4713L7.95904 40.0801L8.24322 39.4395L6.87061 38.8306L5.498 38.2217L5.21382 38.8624L6.58643 39.4713ZM6.87061 38.8306L7.88176 39.9407L8.63762 39.2523L7.62646 38.1422L6.61531 37.032L5.85945 37.7205L6.87061 38.8306ZM7.62646 38.1422L8.16814 39.5426L8.75896 39.3141L8.21729 37.9136L7.67561 36.5131L7.08479 36.7417L7.62646 38.1422ZM8.21729 37.9136L8.21677 39.4152L11.0586 39.4162L11.0591 37.9146L11.0596 36.413L8.2178 36.412L8.21729 37.9136ZM34.4946 4.88531L34.0378 6.31574L40.5114 8.38313L40.9683 6.9527L41.4251 5.52227L34.9514 3.45489L34.4946 4.88531ZM40.9683 6.9527L39.6966 7.75125L44.1702 14.8753L45.4419 14.0767L46.7136 13.2782L42.2399 6.15414L40.9683 6.9527ZM45.4419 14.0767L45.3276 15.574L48.8853 15.8455L48.9995 14.3482L49.1138 12.851L45.5562 12.5795L45.4419 14.0767ZM48.9995 14.3482H47.4979V26.2271H48.9995H50.5011V14.3482H48.9995ZM48.9995 26.2271L47.5487 25.8398C47.549 25.8387 46.8168 28.5738 45.3006 31.4384C43.7274 34.4106 41.5933 36.9823 39.0069 37.4834L39.2925 38.9576L39.5781 40.4318C43.6317 39.6464 46.3401 35.8941 47.9549 32.8433C49.6266 29.685 50.428 26.6981 50.4503 26.6144L48.9995 26.2271ZM39.2925 38.9576L38.427 37.7305C38.2107 37.883 37.9817 38.0153 37.74 38.1238L38.355 39.4937L38.97 40.8636C39.3975 40.6717 39.7935 40.4417 40.158 40.1847L39.2925 38.9576ZM38.355 39.4937L37.7398 38.1239C36.7126 38.5852 35.503 38.8348 34.1137 38.8349L34.1138 40.3365L34.1138 41.8381C35.8635 41.838 37.502 41.5229 38.9702 40.8635L38.355 39.4937ZM34.1138 40.3365L35.1756 39.2747L35.1736 39.2727L34.1118 40.3345L33.05 41.3963L33.052 41.3983L34.1138 40.3365ZM34.1118 40.3345V38.8329C33.8774 38.8329 33.6377 38.8259 33.3943 38.8112L33.3042 40.3101L33.2141 41.809C33.5173 41.8272 33.8171 41.8361 34.1118 41.8361V40.3345ZM33.3042 40.3101L34.8031 40.4001L34.8842 39.0505L33.3853 38.9605L31.8864 38.8705L31.8053 40.2201L33.3042 40.3101ZM33.3853 38.9605L33.2976 40.4596C35.155 40.5681 36.8871 40.3119 38.4062 39.6303L37.7915 38.2603L37.1768 36.8903C36.1851 37.3352 34.9529 37.548 33.4729 37.4615L33.3853 38.9605ZM37.7915 38.2603L38.4065 39.6302C40.9539 38.4866 42.3562 35.644 41.5684 32.957L40.1274 33.3795L38.6865 33.8019C39.0307 34.9759 38.4259 36.3296 37.1765 36.8904L37.7915 38.2603ZM40.1274 33.3795L41.5681 32.9561C41.1406 31.5012 40.2054 30.4459 38.7942 29.8795L38.2349 31.273L37.6755 32.6665C38.2093 32.8808 38.5113 33.2057 38.6868 33.8028L40.1274 33.3795ZM38.2349 31.273L38.7949 29.8798C37.0264 29.1688 35.2303 29.4607 33.5995 30.5164L34.4155 31.7769L35.2315 33.0374C36.1798 32.4236 36.9538 32.3764 37.6748 32.6662L38.2349 31.273ZM34.4155 31.7769L33.5987 30.5169C32.3736 31.3111 31.5925 32.3156 31.4958 32.4598L32.7427 33.2964L33.9896 34.1331C33.9788 34.1492 33.9701 34.1615 33.9673 34.1654C33.9633 34.1711 33.96 34.1756 33.9581 34.1782C33.9542 34.1836 33.9511 34.1878 33.9496 34.1898C33.9464 34.1941 33.944 34.1973 33.9431 34.1985C33.9409 34.2015 33.9398 34.2029 33.94 34.2026C33.9403 34.2022 33.9432 34.1984 33.9488 34.1914C33.9598 34.1776 33.9798 34.1529 34.0082 34.1194C34.0651 34.0522 34.1539 33.9517 34.2705 33.8326C34.5075 33.5905 34.8391 33.2918 35.2324 33.0369L34.4155 31.7769ZM32.7427 33.2964L33.6325 32.0869L32.5388 31.2822L31.6489 32.4918L30.7591 33.7013L31.8528 34.506L32.7427 33.2964ZM31.6489 32.4918L32.8508 33.392C32.8343 33.414 33.1474 32.9941 33.7013 32.5069L32.7095 31.3795L31.7177 30.252C30.9592 30.9192 30.5079 31.5104 30.4471 31.5915L31.6489 32.4918ZM32.7095 31.3795L32.1942 29.969C31.2587 30.3108 30.5317 30.6018 30.5009 30.6142L31.061 32.0074L31.6211 33.4006C31.621 33.4007 31.6239 33.3995 31.6301 33.397C31.6361 33.3946 31.6446 33.3912 31.6556 33.3869C31.6776 33.3781 31.7094 33.3655 31.75 33.3495C31.8312 33.3174 31.9476 33.2718 32.0917 33.2161C32.3801 33.1045 32.7778 32.9532 33.2247 32.7899L32.7095 31.3795ZM31.061 32.0074H29.5594V35.315H31.061H32.5626V32.0074H31.061ZM31.061 35.315V33.8134H28.2212V35.315V36.8166H31.061V35.315ZM28.2212 35.315L29.7228 35.3118L29.7013 25.2844L28.1997 25.2877L26.6981 25.2909L26.7196 35.3182L28.2212 35.315ZM28.1997 25.2877V23.7861H25.4077V25.2877V26.7893H28.1997V25.2877ZM25.4077 25.2877H26.9093V18.3716H25.4077H23.9061V25.2877H25.4077ZM25.4077 18.3716V16.87H11.4497V18.3716V19.8732H25.4077V18.3716ZM11.4497 18.3716H9.94811V23.3199H11.4497H12.9513V18.3716H11.4497ZM11.4497 23.3199V21.8183H7.86377V23.3199V24.8215H11.4497V23.3199ZM7.86377 23.3199H9.36537V12.8795H7.86377H6.36217V23.3199H7.86377ZM7.86377 12.8795L8.97437 13.8901L12.8347 9.6479L11.7241 8.63727L10.6135 7.62664L6.75317 11.8688L7.86377 12.8795ZM11.7241 8.63727L12.3712 9.99227L20.9103 5.91414L20.2632 4.55914L19.6161 3.20414L11.077 7.28227L11.7241 8.63727ZM20.2632 4.55914L20.2288 6.06035L34.4602 6.38652L34.4946 4.88531L34.529 3.38411L20.2976 3.05794L20.2632 4.55914ZM33.1665 34.606L34.4051 35.455C34.6234 35.1366 35.0914 34.6606 35.7003 34.3715C36.2663 34.1026 36.9252 34.002 37.6934 34.3108L38.2534 32.9175L38.8135 31.5243C37.1445 30.8534 35.6067 31.0912 34.4119 31.6586C33.26 32.2057 32.4031 33.0639 31.9279 33.757L33.1665 34.606ZM38.2534 32.9175L36.8626 32.3515L36.3519 33.6064L37.7427 34.1724L39.1335 34.7385L39.6442 33.4836L38.2534 32.9175ZM37.7427 34.1724L38.3021 32.7789C37.6306 32.5094 36.973 32.4296 36.3572 32.4919L36.5083 33.9859L36.6594 35.4799C36.7942 35.4662 36.9641 35.4779 37.1833 35.5659L37.7427 34.1724ZM36.5083 33.9859L35.1702 34.6674C35.3034 34.9289 35.3768 35.1858 35.3837 35.4069C35.3899 35.6035 35.3466 35.7925 35.1994 35.9957L36.4155 36.8765L37.6317 37.7573C38.8174 36.1202 38.3845 34.3611 37.8464 33.3044L36.5083 33.9859ZM36.4155 36.8765L37.2891 35.6552L36.1846 34.8652L35.311 36.0865L34.4374 37.3078L35.5419 38.0978L36.4155 36.8765ZM35.311 36.0865L36.5269 36.9676C37.5091 35.6123 36.8065 34.1888 36.5173 33.7031L35.2271 34.4713L33.9368 35.2394C33.9669 35.29 33.9905 35.3372 34.0068 35.3778C34.0234 35.4192 34.0267 35.4395 34.0266 35.4392C34.0263 35.4369 34.0219 35.4038 34.0329 35.3507C34.0384 35.3242 34.0471 35.2966 34.0589 35.2695C34.0708 35.2424 34.0839 35.2209 34.0951 35.2054L35.311 36.0865ZM35.2271 34.4713L34.3881 33.2259C33.6001 33.7567 33.1366 34.3969 33.0547 34.5153L34.2896 35.3697L35.5244 36.2241C35.5042 36.2532 35.5515 36.1825 35.6548 36.0716C35.7582 35.9604 35.8995 35.8288 36.066 35.7166L35.2271 34.4713ZM34.2896 35.3697H35.7912V35.3687H34.2896H32.788V35.3697H34.2896ZM34.2896 35.3687L35.1332 34.1265L34.0101 33.3638L33.1665 34.606L32.3229 35.8482L33.4459 36.6109L34.2896 35.3687ZM11.1411 25.0269L10.1642 26.1673L12.4943 28.1634L13.4712 27.023L14.4481 25.8826L12.118 23.8865L11.1411 25.0269ZM13.4712 27.023L11.9964 27.3057L12.1547 28.1309L13.6294 27.8482L15.1041 27.5655L14.9459 26.7403L13.4712 27.023ZM13.6294 27.8482L12.3 27.1499L8.50413 34.3765L9.8335 35.0748L11.1629 35.773L14.9588 28.5465L13.6294 27.8482ZM9.8335 35.0748V36.5764H15.2769V35.0748V33.5732H9.8335V35.0748ZM15.2769 35.0748H13.7753V36.4273H15.2769H16.7785V35.0748H15.2769ZM15.2769 36.4273V34.9257H8.70947V36.4273V37.9289H15.2769V36.4273ZM8.70947 36.4273L9.99157 35.6456L9.38903 34.6573L8.10693 35.439L6.82483 36.2207L7.42737 37.209L8.70947 36.4273ZM8.10693 35.439L9.43629 36.1373L13.5027 28.3961L12.1733 27.6978L10.844 26.9995L6.77758 34.7407L8.10693 35.439ZM12.1733 27.6978L13.1508 26.5579L11.5336 25.1712L10.5562 26.3111L9.5787 27.451L11.1959 28.8377L12.1733 27.6978ZM10.5562 26.3111L10.039 24.9013L7.38474 25.875L7.90186 27.2847L8.41897 28.6945L11.0733 27.7208L10.5562 26.3111ZM7.90186 27.2847L9.30931 26.7614L8.83763 25.4928L7.43018 26.0162L6.02272 26.5395L6.4944 27.8081L7.90186 27.2847ZM7.43018 26.0162L7.9476 27.4258L10.9779 26.3135L10.4604 24.9039L9.94302 23.4942L6.91275 24.6065L7.43018 26.0162ZM10.4604 24.9039L10.1933 26.3815L10.874 26.5046L11.1411 25.0269L11.4082 23.5493L10.7276 23.4262L10.4604 24.9039ZM20.3003 28.9019L19.242 27.8367L17.4383 29.6287L18.4966 30.6939L19.5549 31.7592L21.3586 29.9672L20.3003 28.9019ZM18.4966 30.6939L19.5552 29.629L17.7525 27.837L16.6938 28.9019L15.6352 29.9669L17.438 31.7589L18.4966 30.6939ZM16.6938 28.9019L17.7522 29.9672L19.5549 28.1761L18.4966 27.1109L17.4383 26.0457L15.6355 27.8367L16.6938 28.9019ZM18.4966 27.1109L17.4385 28.1764L19.2423 29.9675L20.3003 28.9019L21.3583 27.8364L19.5546 26.0454L18.4966 27.1109ZM9.51514 27.7095L9.51512 29.2111C9.41797 29.2111 9.32409 29.1304 9.32408 29.0123L10.8257 29.0123L12.3273 29.0122C12.3272 27.4555 11.0603 26.208 9.51515 26.2079L9.51514 27.7095ZM10.8257 29.0123H9.32408C9.32408 28.8941 9.41806 28.8134 9.51512 28.8134L9.51514 30.315L9.51515 31.8166C11.0603 31.8166 12.3273 30.5691 12.3273 29.0123H10.8257ZM9.51514 30.315V28.8134C9.61222 28.8134 9.70619 28.8941 9.70619 29.0123H8.20459H6.70299C6.70299 30.5691 7.96999 31.8166 9.51514 31.8166V30.315ZM8.20459 29.0123L9.70619 29.0123C9.70618 29.1304 9.61231 29.2111 9.51514 29.2111V27.7095V26.2079C7.96994 26.2079 6.70306 27.4555 6.70299 29.0122L8.20459 29.0123ZM18.8872 24.6636L18.3172 26.0528L21.2137 27.2413L21.7837 25.8521L22.3537 24.4629L19.4572 23.2744L18.8872 24.6636ZM21.7837 25.8521L20.9259 27.0846L21.17 27.2545L22.0278 26.022L22.8856 24.7896L22.6415 24.6196L21.7837 25.8521ZM22.0278 26.022L20.9199 27.0356L21.5488 27.7231L22.6567 26.7095L23.7647 25.696L23.1358 25.0085L22.0278 26.022ZM22.6567 26.7095L21.6503 25.5951L20.6425 26.5053L21.6489 27.6197L22.6553 28.7341L23.6632 27.8239L22.6567 26.7095ZM21.6489 27.6197L22.7567 26.606L22.2303 26.0308L21.1226 27.0445L20.0148 28.0582L20.5412 28.6334L21.6489 27.6197ZM21.1226 27.0445L21.6927 25.6553L19.18 24.6241L18.6099 26.0132L18.0397 27.4024L20.5524 28.4336L21.1226 27.0445ZM18.6099 26.0132L18.1057 24.5988L15.0178 25.6994L15.522 27.1138L16.0261 28.5283L19.114 27.4277L18.6099 26.0132ZM15.522 27.1138L16.9343 26.6037L16.4743 25.3303L15.062 25.8404L13.6497 26.3505L14.1097 27.6239L15.522 27.1138ZM15.062 25.8404L15.566 27.2549L18.9019 26.0664L18.3979 24.6519L17.894 23.2374L14.5581 24.4259L15.062 25.8404ZM18.3979 24.6519L18.362 26.1531L18.8513 26.1648L18.8872 24.6636L18.9232 23.1625L18.4339 23.1507L18.3979 24.6519Z" fill="#CFCFCF" mask="url(#path-2-outside-1_863_2092)"/>
<path d="M64.5 6.5L64.5 6L63.5 6L63.5 6.5L64 6.5L64.5 6.5ZM64 6.5L63.5 6.5L63.5 49.5L64 49.5L64.5 49.5L64.5 6.5L64 6.5Z" fill="#CFCFCF"/>
<path d="M156.688 23.3199V11.3199H158.88L160.927 19.8159L162.976 11.3199H165.168V23.3199H163.632L163.712 12.8719L161.312 23.3199H160.32L157.92 12.8719L158 23.3199H156.688Z" fill="#CFCFCF"/>
<path d="M148.594 23.3199L151.026 11.3199H153.202L155.634 23.3199H154.018L153.474 20.4079H150.594L150.05 23.3199H148.594ZM150.85 19.0639H153.234L152.034 12.6799L150.85 19.0639Z" fill="#CFCFCF"/>
<path d="M142.09 11.3199H143.866L145.674 16.7439L147.482 11.3199H149.018L146.362 18.3759V23.3199H144.746V18.3759L142.09 11.3199Z" fill="#CFCFCF"/>
<path d="M135.939 11.3199H141.827V12.6799H139.683V23.3199H138.083V12.6799H135.939V11.3199Z" fill="#CFCFCF"/>
<path d="M129.094 23.3199L131.526 11.3199H133.702L136.134 23.3199H134.518L133.974 20.4079H131.094L130.55 23.3199H129.094ZM131.35 19.0639H133.734L132.534 12.6799L131.35 19.0639Z" fill="#CFCFCF"/>
<path d="M122.191 20.216L123.631 19.976C123.716 20.6693 123.919 21.208 124.239 21.592C124.559 21.9653 124.959 22.152 125.439 22.152C125.898 22.152 126.26 22.0026 126.527 21.704C126.804 21.3946 126.943 20.984 126.943 20.472C126.943 20.0026 126.831 19.608 126.607 19.288C126.394 18.9573 126.122 18.664 125.791 18.408C125.46 18.1413 125.103 17.8853 124.719 17.64C124.335 17.3946 123.978 17.1173 123.647 16.808C123.316 16.488 123.039 16.1146 122.815 15.688C122.602 15.2613 122.495 14.7333 122.495 14.104C122.495 13.6666 122.564 13.272 122.703 12.92C122.842 12.5573 123.039 12.248 123.295 11.992C123.551 11.7253 123.855 11.5226 124.207 11.384C124.559 11.2346 124.948 11.16 125.375 11.16C126.175 11.16 126.826 11.4266 127.327 11.96C127.828 12.4826 128.132 13.2293 128.239 14.2L126.911 14.44C126.836 13.8 126.666 13.304 126.399 12.952C126.132 12.5893 125.786 12.408 125.359 12.408C124.943 12.408 124.607 12.552 124.351 12.84C124.095 13.128 123.967 13.512 123.967 13.992C123.967 14.4186 124.079 14.7866 124.303 15.096C124.527 15.3946 124.804 15.6666 125.135 15.912C125.476 16.1573 125.844 16.4026 126.239 16.648C126.634 16.8933 126.996 17.176 127.327 17.496C127.668 17.816 127.951 18.1946 128.175 18.632C128.399 19.0693 128.506 19.608 128.495 20.248C128.495 20.728 128.415 21.1653 128.255 21.56C128.106 21.9546 127.898 22.296 127.631 22.584C127.364 22.8613 127.044 23.08 126.671 23.24C126.298 23.4 125.887 23.48 125.439 23.48C124.511 23.48 123.764 23.1973 123.199 22.632C122.644 22.0666 122.308 21.2613 122.191 20.216Z" fill="#CFCFCF"/>
<path d="M112.793 11.3199H114.569L116.377 16.7439L118.185 11.3199H119.721L117.065 18.3759V23.3199H115.449V18.3759L112.793 11.3199Z" fill="#CFCFCF"/>
<path d="M106.359 11.3199H109.191C111.346 11.3199 112.423 12.3119 112.423 14.2959C112.423 15.7679 111.789 16.6799 110.519 17.0319C111.97 17.3839 112.695 18.3706 112.695 19.9919C112.695 22.2106 111.533 23.3199 109.207 23.3199H106.359V11.3199ZM107.943 17.7359V22.0079H109.111C109.805 22.0079 110.301 21.8426 110.599 21.5119C110.909 21.1813 111.063 20.6266 111.063 19.8479C111.063 18.4399 110.386 17.7359 109.031 17.7359H107.943ZM107.943 12.5999V16.4239H108.951C109.613 16.4239 110.087 16.2746 110.375 15.9759C110.674 15.6773 110.823 15.1759 110.823 14.4719C110.823 13.7999 110.69 13.3199 110.423 13.0319C110.167 12.7439 109.746 12.5999 109.159 12.5999H107.943Z" fill="#CFCFCF"/>
<path d="M97.5156 11.3199H103.004V12.6799H99.1156V16.4559H101.964V17.8159H99.1156V21.9599H103.004V23.3199H97.5156V11.3199Z" fill="#CFCFCF"/>
<path d="M89.625 11.3199H91.689C93.1823 11.3199 94.2757 11.7999 94.969 12.7599C95.673 13.7093 96.025 15.2293 96.025 17.3199C96.025 19.3893 95.673 20.9093 94.969 21.8799C94.2757 22.8399 93.1823 23.3199 91.689 23.3199H89.625V11.3199ZM91.225 12.6479V21.9919H91.721C92.201 21.9919 92.6063 21.9119 92.937 21.7519C93.2783 21.5919 93.5557 21.3306 93.769 20.9679C93.9823 20.5946 94.137 20.1093 94.233 19.5119C94.3397 18.9146 94.393 18.1839 94.393 17.3199C94.393 16.4559 94.3397 15.7253 94.233 15.1279C94.137 14.5306 93.9823 14.0506 93.769 13.6879C93.5557 13.3146 93.2783 13.0479 92.937 12.8879C92.6063 12.7279 92.201 12.6479 91.721 12.6479H91.225Z" fill="#CFCFCF"/>
<path d="M81.5317 23.3199L83.9637 11.3199H86.1397L88.5717 23.3199H86.9557L86.4117 20.4079H83.5317L82.9877 23.3199H81.5317ZM83.7877 19.0639H86.1717L84.9717 12.6799L83.7877 19.0639Z" fill="#CFCFCF"/>
<path d="M72 23.3199V11.3199H74.192L76.24 19.8159L78.288 11.3199H80.48V23.3199H78.944L79.024 12.8719L76.624 23.3199H75.632L73.232 12.8719L73.312 23.3199H72Z" fill="#CFCFCF"/>
<path d="M140.128 43.72V37.96H138.336V40.68C138.336 42.0773 137.552 42.776 135.984 42.776C134.416 42.776 133.632 42.0773 133.632 40.68V38.824C133.632 37.448 134.416 36.76 135.984 36.76H136.992V34.408H132.672V33.224H142.976V34.408H141.504V43.72H140.128ZM138.336 36.76H140.128V34.408H138.336V36.76ZM136.992 40.648V37.96H135.984C135.579 37.96 135.307 38.0347 135.168 38.184C135.04 38.3227 134.976 38.5467 134.976 38.856V40.648C134.976 40.9573 135.04 41.1867 135.168 41.336C135.307 41.4853 135.579 41.56 135.984 41.56C136.389 41.56 136.656 41.4907 136.784 41.352C136.923 41.2027 136.992 40.968 136.992 40.648Z" fill="#CFCFCF"/>
<path d="M127.775 35.416C127.775 35.0213 127.732 34.6853 127.647 34.408H120.719V33.224H133.599V34.408H132.127V43.72H130.735V42.184C130.191 42.3013 129.641 42.36 129.087 42.36C128.095 42.36 127.295 42.136 126.687 41.688C126.079 41.24 125.775 40.5307 125.775 39.56V38.072C125.636 37.72 125.311 37.544 124.799 37.544H124.591C123.748 37.544 123.327 37.9013 123.327 38.616V41.512C123.327 41.832 123.417 42.072 123.599 42.232C123.78 42.3813 124.089 42.4507 124.527 42.44V43.72L124.143 43.736C122.671 43.768 121.935 43.0587 121.935 41.608V38.584C121.935 37.0373 122.82 36.264 124.591 36.264H124.831C126.047 36.264 126.793 36.6533 127.071 37.432C127.327 37.3787 127.508 37.272 127.615 37.112C127.721 36.952 127.775 36.7173 127.775 36.408V35.416ZM130.735 34.408H129.007C129.092 34.6533 129.135 34.9893 129.135 35.416V36.6C129.135 37.848 128.468 38.488 127.135 38.52V39.416C127.135 39.9707 127.295 40.3867 127.615 40.664C127.945 40.9307 128.415 41.064 129.023 41.064C129.631 41.064 130.201 41.0107 130.735 40.904V34.408Z" fill="#CFCFCF"/>
<path d="M115.61 35.416C115.61 35.0533 115.562 34.7173 115.466 34.408H110.906V33.224H121.642V34.408H120.17V43.72H118.778V39.224H116.426C116.032 39.6187 115.429 39.816 114.618 39.816C114.256 39.816 113.914 39.7733 113.594 39.688V41.272C113.594 42.1147 114.16 42.536 115.29 42.536C115.888 42.536 116.538 42.4293 117.242 42.216V43.496C116.613 43.6987 115.872 43.8 115.018 43.8C114.165 43.8 113.482 43.5813 112.97 43.144C112.458 42.7067 112.202 42.0933 112.202 41.304V36.52H113.594V38.456C113.936 38.5413 114.229 38.584 114.474 38.584C115.232 38.584 115.61 38.2533 115.61 37.592V35.416ZM118.778 38.024V34.408H116.858C116.933 34.632 116.97 34.968 116.97 35.416V37.592C116.97 37.688 116.96 37.832 116.938 38.024H118.778Z" fill="#CFCFCF"/>
<path d="M107.374 36.872H104.91C104.515 36.872 104.238 36.9413 104.078 37.08C103.929 37.2186 103.854 37.432 103.854 37.72V37.784C103.854 38.36 104.206 38.648 104.91 38.648H105.294C106.969 38.648 107.806 39.3413 107.806 40.728V41.304C107.806 42.0293 107.609 42.568 107.214 42.92C106.83 43.272 106.19 43.448 105.294 43.448C104.867 43.448 104.425 43.4053 103.966 43.32V44.84H102.622V41H103.966V42.072C104.329 42.1573 104.723 42.2 105.15 42.2C106.003 42.2 106.43 41.8853 106.43 41.256V40.76C106.43 40.4613 106.345 40.2373 106.174 40.088C106.014 39.928 105.721 39.848 105.294 39.848H104.91C103.289 39.848 102.478 39.1706 102.478 37.816V37.688C102.478 36.9946 102.675 36.4826 103.07 36.152C103.475 35.8213 104.089 35.656 104.91 35.656H105.982V34.408H101.422V33.224H105.918C105.587 32.5626 105.422 31.928 105.422 31.32C105.422 30.712 105.619 30.2533 106.014 29.944C106.419 29.6346 106.921 29.48 107.518 29.48C107.721 29.48 108.035 29.5066 108.462 29.56V30.792C108.238 30.76 108.051 30.744 107.902 30.744C107.177 30.744 106.814 31.0533 106.814 31.672C106.814 32.0666 106.974 32.584 107.294 33.224H108.814V34.408H107.374V36.872Z" fill="#CFCFCF"/>
<path d="M99.4876 34.408H98.0156V33.224H102.352V34.408H100.88V43.72H99.4876V34.408Z" fill="#CFCFCF"/>
<path d="M91.0625 33.224H98.9505V34.408H97.4625V43.72H96.1505V42.504C95.7985 42.6213 95.3665 42.68 94.8545 42.68C93.0732 42.68 92.1825 41.928 92.1825 40.424V37.896C92.1825 36.392 93.0572 35.64 94.8065 35.64C95.3718 35.64 95.8198 35.704 96.1505 35.832V34.408H91.0625V33.224ZM94.9185 36.824C94.1932 36.824 93.7505 37.048 93.5905 37.496L96.1505 39.656V37.016C95.8198 36.888 95.4092 36.824 94.9185 36.824ZM93.5265 40.376C93.5265 41.1227 93.9905 41.496 94.9185 41.496C95.3878 41.496 95.7985 41.4427 96.1505 41.336V40.744L93.5265 38.504V40.376Z" fill="#CFCFCF"/>
<path d="M87.871 41.144V41.576C87.871 43.0907 86.8897 43.848 84.927 43.848C84.2017 43.848 83.4657 43.7627 82.719 43.592V42.296C83.423 42.4773 84.159 42.568 84.927 42.568C85.9617 42.568 86.479 42.232 86.479 41.56V41.176C86.479 40.8773 86.3937 40.6533 86.223 40.504C86.063 40.344 85.7697 40.264 85.343 40.264H85.023C83.391 40.264 82.575 39.5867 82.575 38.232V37.672C82.575 36.3173 83.391 35.64 85.023 35.64H85.999V34.408H81.375V33.224H88.959V34.408H87.391V36.872H85.023C84.6283 36.872 84.351 36.9467 84.191 37.096C84.0417 37.2347 83.967 37.448 83.967 37.736V38.184C83.967 38.472 84.0417 38.6907 84.191 38.84C84.351 38.9893 84.6283 39.064 85.023 39.064H85.343C87.0283 39.064 87.871 39.7573 87.871 41.144Z" fill="#CFCFCF"/>
<path d="M77.1992 29.56C77.6472 29.56 78.0205 29.6453 78.3192 29.816C78.6178 29.976 78.9058 30.2693 79.1832 30.696L80.8312 33.224H79.3912L78.1752 31.384C77.8978 30.9573 77.5245 30.744 77.0552 30.744C76.8738 30.744 76.7352 30.7493 76.6392 30.76V29.592C76.8738 29.5707 77.0605 29.56 77.1992 29.56Z" fill="#CFCFCF"/>
<path d="M79.456 43.72V37.96H77.664V40.68C77.664 42.0773 76.88 42.776 75.312 42.776C73.744 42.776 72.96 42.0773 72.96 40.68V38.824C72.96 37.448 73.744 36.76 75.312 36.76H76.32V34.408H72V33.224H82.304V34.408H80.832V43.72H79.456ZM77.664 36.76H79.456V34.408H77.664V36.76ZM76.32 40.648V37.96H75.312C74.9067 37.96 74.6347 38.0347 74.496 38.184C74.368 38.3227 74.304 38.5467 74.304 38.856V40.648C74.304 40.9573 74.368 41.1867 74.496 41.336C74.6347 41.4853 74.9067 41.56 75.312 41.56C75.7173 41.56 75.984 41.4907 76.112 41.352C76.2507 41.2027 76.32 40.968 76.32 40.648Z" fill="#CFCFCF"/>
</svg>
